<svg width="40" height="40" viewBox="0 0 40 40" fill="none" xmlns="http://www.w3.org/2000/svg">
<rect x="0.5" y="0.5" width="39" height="39" rx="4.5" stroke="#1A50DA"/>
<path d="M16.667 21.666C17.3828 22.6228 18.2959 23.4146 19.3446 23.9875C20.3932 24.5605 21.5528 24.9012 22.7447 24.9865C23.9367 25.0719 25.133 24.8999 26.2526 24.4823C27.3722 24.0646 28.3889 23.4111 29.2337 22.566L34.2337 17.566C35.7517 15.9943 36.5916 13.8893 36.5726 11.7043C36.5536 9.51931 35.6772 7.4292 34.1322 5.88414C32.5871 4.33907 30.497 3.46266 28.312 3.44367C26.127 3.42469 24.022 4.26464 22.4503 5.78262L19.5837 8.63262M23.3337 18.3326C22.6179 17.3757 21.7047 16.584 20.6561 16.0111C19.6074 15.4381 18.4478 15.0974 17.2559 15.0121C16.064 14.9267 14.8677 15.0987 13.7481 15.5163C12.6285 15.934 11.6118 16.5875 10.767 17.4326L5.767 22.4326C4.24902 24.0043 3.40906 26.1093 3.42805 28.2943C3.44704 30.4793 4.32344 32.5694 5.86851 34.1144C7.41358 35.6595 9.50368 36.5359 11.6887 36.5549C13.8736 36.5739 15.9786 35.7339 17.5503 34.216L20.4003 31.366" stroke="#1A50DA" stroke-width="2" stroke-linecap="round" stroke-linejoin="round"/>
</svg>
